<svg width="200" height="246" viewBox="0 0 200 246" fill="none" xmlns="http://www.w3.org/2000/svg">
<path d="M175.344 60.0293C174.284 60.7368 173.092 61.2213 171.839 61.4533C169.495 61.7252 169.327 58.9019 168.605 58.5657C167.883 58.2295 166.785 59.7474 164.501 59.5249C163.275 59.4013 161.974 57.3197 161.04 55.4259L160.654 55.8759C160.654 55.8759 141.44 107.794 140.218 110.686C143.469 117.627 146.333 124.744 148.797 132.002L175.374 60.6127L175.344 60.0293Z" fill="#A259FF"/>
<path d="M163.047 121.594C155.344 125.089 151.18 124.62 150.142 123.72C149.948 123.55 149.808 123.327 149.739 123.079C149.67 122.83 149.675 122.567 149.753 122.322C149.831 122.076 149.98 121.859 150.179 121.696C150.379 121.533 150.622 121.433 150.879 121.406C150.028 121.406 148.258 119.463 150.879 118.439C149.504 118.009 149.054 115.27 152.886 115.27C151.23 114.513 151.091 111.774 154.37 111.724C157.781 111.675 159.853 108.51 159.853 108.51L163.047 121.594Z" fill="white"/>
<path d="M174.365 150.707C169.673 145.125 160.52 143.958 151.452 144.477V144.442C151.541 142.163 150.824 138.677 149.593 134.553C149.049 135.003 148.569 135.384 148.233 135.631C140.475 141.387 119.97 144.922 112.069 145.189C112.415 147.414 117.374 163.37 119.871 166.114C120.198 167.103 128.119 189.789 125.884 193.898C124.86 195.787 110.343 204.143 99.5146 214.991C100.424 219.402 104.79 224.663 109.967 225.498C123.179 218.927 139.674 210.141 143.318 204.069C146.962 197.997 147.318 189.502 147.818 168.359L147.773 168.122C155.309 166.757 156.822 166.144 156.822 166.144C156.822 166.144 161.514 188.978 165.682 200.548C165.682 200.548 175.161 198.946 178.177 196.949C179.226 187.509 183.072 161.061 174.365 150.707Z" fill="#0F2064"/>
<path d="M109.963 225.899H109.893C104.454 225.024 100.069 219.609 99.1391 215.1C99.1266 215.04 99.1291 214.978 99.1463 214.919C99.1636 214.861 99.1951 214.807 99.238 214.764C106.012 207.98 114.23 202.16 119.674 198.308C122.764 196.123 125.202 194.392 125.548 193.759C126.809 191.435 124.608 181.324 119.659 166.708L119.535 166.342C116.9 163.306 112.03 147.434 111.693 145.288C111.685 145.236 111.688 145.182 111.701 145.131C111.715 145.08 111.74 145.033 111.774 144.992C111.807 144.951 111.849 144.918 111.897 144.895C111.944 144.872 111.996 144.859 112.049 144.858C120.287 144.576 140.451 140.976 148.006 135.374C148.327 135.137 148.807 134.756 149.351 134.306C149.398 134.267 149.454 134.24 149.514 134.227C149.574 134.215 149.637 134.218 149.696 134.235C149.754 134.253 149.808 134.285 149.851 134.328C149.895 134.372 149.927 134.425 149.944 134.484C151.2 138.672 151.828 141.901 151.823 144.096C162.919 143.518 170.612 145.664 174.642 150.48C182.83 160.23 180.106 183.564 178.796 194.783C178.702 195.604 178.613 196.345 178.539 197.008C178.532 197.062 178.515 197.113 178.486 197.159C178.458 197.206 178.42 197.245 178.375 197.275C175.33 199.297 166.128 200.865 165.737 200.934C165.651 200.949 165.562 200.933 165.487 200.889C165.412 200.844 165.355 200.774 165.327 200.691C161.505 190.081 157.193 169.788 156.535 166.648C155.715 166.901 153.494 167.494 148.179 168.463C147.685 189.373 147.334 198.13 143.63 204.296C139.867 210.566 122.705 219.624 110.126 225.864C110.075 225.888 110.019 225.9 109.963 225.899ZM99.9154 215.139C100.88 219.352 105.053 224.292 109.903 225.142C122.393 218.927 139.343 209.992 142.997 203.91C146.651 197.829 146.953 189.205 147.447 168.423L147.413 168.226C147.403 168.178 147.404 168.128 147.414 168.08C147.423 168.032 147.443 167.987 147.47 167.946C147.498 167.906 147.533 167.871 147.574 167.845C147.615 167.818 147.661 167.799 147.709 167.791C155.052 166.46 156.664 165.813 156.684 165.813C156.733 165.794 156.787 165.786 156.84 165.789C156.893 165.793 156.945 165.808 156.992 165.833C157.039 165.858 157.08 165.893 157.112 165.936C157.144 165.979 157.167 166.028 157.178 166.08C157.223 166.307 161.836 188.637 165.92 200.143C167.532 199.856 175.077 198.437 177.822 196.746C177.891 196.128 177.97 195.44 178.059 194.689C179.354 183.578 182.054 160.453 174.074 150.949C170.118 146.267 162.533 144.21 151.467 144.853C151.417 144.856 151.366 144.849 151.318 144.832C151.271 144.815 151.227 144.789 151.19 144.754C151.153 144.72 151.124 144.678 151.104 144.633C151.083 144.587 151.072 144.537 151.072 144.487C151.151 142.415 150.577 139.32 149.386 135.231C149.01 135.532 148.688 135.789 148.441 135.967C140.896 141.565 121.078 145.189 112.504 145.58C113.231 148.808 117.785 163.321 120.134 165.902C120.169 165.94 120.196 165.986 120.213 166.035L120.356 166.465C123.348 175.296 128.084 190.634 126.196 194.11C125.785 194.862 123.926 196.202 120.099 198.911C114.734 202.714 106.62 208.459 99.9203 215.139H99.9154Z" fill="#0F2064"/>
<path d="M171.418 215.09C169.688 215.09 169.035 212.761 167.433 207.06C167.166 206.106 166.869 205.053 166.538 203.896C166.518 203.803 166.533 203.707 166.582 203.626C166.63 203.545 166.708 203.485 166.799 203.459C166.889 203.433 166.987 203.443 167.071 203.487C167.155 203.53 167.219 203.604 167.25 203.693C167.581 204.85 167.878 205.903 168.15 206.857C169.673 212.296 170.306 214.516 171.611 214.329C172.353 214.225 173.826 213.399 175.532 212.45C178.044 211.045 181.169 209.3 184.373 208.38C186.044 207.886 188.086 207.446 190.059 207.006C194.049 206.121 199.014 205.028 199.251 203.866C199.251 203.792 199.202 203.48 198.727 202.956C196.566 200.578 189.169 196.963 175.132 198.506C175.036 198.512 174.942 198.481 174.869 198.42C174.796 198.358 174.75 198.271 174.739 198.176C174.729 198.081 174.756 197.985 174.814 197.91C174.873 197.834 174.958 197.784 175.053 197.769C189.392 196.212 197.026 199.994 199.281 202.477C199.661 202.897 200.092 203.505 199.983 204.034C199.671 205.547 196.087 206.447 190.222 207.747C188.245 208.183 186.227 208.637 184.581 209.107C181.461 210.007 178.375 211.728 175.898 213.112C174.054 214.141 172.6 214.952 171.72 215.09C171.619 215.097 171.519 215.097 171.418 215.09Z" fill="#0F2064"/>
<path d="M174.899 49.2799L168.358 46.9213L174.504 39.7765L174.899 49.2799Z" fill="#0F2064"/>
<path d="M174.899 49.6507C174.858 49.6578 174.817 49.6578 174.776 49.6507L168.239 47.2724C168.183 47.2517 168.133 47.2177 168.093 47.1735C168.053 47.1292 168.024 47.0759 168.009 47.0182C167.994 46.9604 167.993 46.8999 168.006 46.8417C168.02 46.7835 168.047 46.7294 168.086 46.684L174.237 39.5392C174.285 39.4823 174.35 39.4415 174.422 39.422C174.494 39.4024 174.57 39.4051 174.641 39.4297C174.711 39.4543 174.773 39.4996 174.817 39.5597C174.862 39.6198 174.887 39.6919 174.889 39.7666L175.285 49.27C175.287 49.3199 175.279 49.3698 175.261 49.4165C175.243 49.4632 175.216 49.5059 175.182 49.5419C175.147 49.5779 175.106 49.6066 175.06 49.6261C175.014 49.6457 174.964 49.6557 174.914 49.6557L174.899 49.6507ZM168.966 46.7582L174.484 48.736L174.172 40.7308L168.966 46.7582Z" fill="#0F2064"/>
<path d="M171.577 61.829C171.499 61.8344 171.422 61.8344 171.344 61.829C170.355 61.6856 169.534 60.8401 168.827 59.2826C168.704 59.0106 168.59 58.9661 168.551 58.9513C168.298 58.8573 167.809 59.0947 167.29 59.3419C166.792 59.602 166.268 59.8091 165.727 59.96C164.382 60.2912 163.112 59.4655 161.95 57.4877C161.907 57.4035 161.897 57.3062 161.924 57.2155C161.95 57.1248 162.01 57.0476 162.092 56.9997C162.173 56.9517 162.27 56.9367 162.362 56.9575C162.454 56.9784 162.535 57.0336 162.587 57.1119C163.576 58.7733 164.565 59.4902 165.554 59.2479C166.045 59.1091 166.521 58.9202 166.973 58.6843C167.665 58.353 168.264 58.0613 168.813 58.264C168.973 58.3299 169.118 58.4279 169.238 58.5521C169.359 58.6763 169.453 58.8239 169.515 58.9859C170.098 60.2863 170.756 60.9983 171.463 61.1022C172.081 61.0838 172.686 60.914 173.223 60.6077C173.312 60.5657 173.414 60.5609 173.507 60.5943C173.6 60.6277 173.676 60.6965 173.718 60.7857C173.76 60.8749 173.764 60.9771 173.731 61.0698C173.698 61.1625 173.629 61.2382 173.54 61.2802C172.93 61.5974 172.262 61.7844 171.577 61.829Z" fill="#0F2064"/>
<path d="M94.2687 245.113C92.5677 245.113 91.6629 243.665 89.6752 237.998C89.2114 236.605 88.9175 235.16 88.8 233.696C88.6223 231.665 88.6058 229.623 88.7506 227.59C88.8598 225.296 89.1709 223.016 89.6801 220.776C89.957 220.114 91.1239 219.619 94.5851 218.156L96.5283 217.33C96.6188 217.291 96.721 217.29 96.8123 217.327C96.9036 217.363 96.9767 217.435 97.0154 217.525C97.054 217.616 97.0552 217.718 97.0186 217.809C96.9819 217.901 96.9105 217.974 96.8201 218.012L94.8769 218.838C92.1672 219.985 90.5306 220.677 90.3724 221.058C89.9015 223.223 89.6088 225.422 89.4972 227.634C89.3552 229.63 89.3718 231.634 89.5466 233.627C89.6582 235.032 89.9387 236.418 90.3823 237.756C92.5183 243.843 93.255 244.446 94.4417 244.372C95.4306 244.302 95.668 243.551 96.113 241.86C96.1773 241.613 96.2465 241.365 96.3256 241.079L96.6618 239.872C97.0821 238.389 97.72 236.09 98.4072 233.726C98.9017 232.099 99.589 229.726 100.187 227.961C100.43 227.234 100.642 226.64 100.825 226.191C100.865 226.104 100.936 226.035 101.025 226C101.114 225.964 101.213 225.964 101.301 226C101.39 226.036 101.461 226.104 101.501 226.191C101.54 226.278 101.544 226.377 101.512 226.467C101.339 226.903 101.127 227.481 100.889 228.193C100.291 229.948 99.5939 232.307 99.1193 233.929C98.432 236.287 97.7991 238.562 97.3788 240.065L97.0376 241.276C96.9634 241.543 96.8942 241.8 96.8299 242.048C96.3948 243.699 96.0537 245.014 94.4912 245.108L94.2687 245.113Z" fill="#0F2064"/>
<path d="M151.803 123.082C151.705 123.082 151.61 123.043 151.541 122.973C151.471 122.904 151.432 122.809 151.432 122.711C151.432 122.613 151.471 122.518 151.541 122.449C151.61 122.379 151.705 122.34 151.803 122.34C156.985 122.152 162.424 120.61 167.072 110.651C171.24 101.722 167.566 94.4431 164.649 92.5296C164.608 92.5027 164.574 92.468 164.546 92.4275C164.519 92.3871 164.5 92.3417 164.491 92.294C164.481 92.2462 164.481 92.1971 164.49 92.1492C164.5 92.1014 164.518 92.0559 164.545 92.0154C164.572 91.9748 164.607 91.9399 164.647 91.9127C164.688 91.8855 164.733 91.8666 164.781 91.8569C164.829 91.8473 164.878 91.8472 164.926 91.8565C164.973 91.8659 165.019 91.8846 165.059 91.9115C168.15 93.9487 172.105 101.628 167.744 110.968C162.928 121.282 157.247 122.889 151.833 123.082H151.803Z" fill="#0F2064"/>
<path d="M167.136 111.725C167.051 111.724 166.969 111.694 166.903 111.64C166.838 111.586 166.792 111.511 166.775 111.428C166.093 108.1 163.008 105.494 160.446 104.708C160.352 104.68 160.273 104.615 160.226 104.529C160.179 104.442 160.168 104.34 160.197 104.246C160.225 104.151 160.289 104.072 160.376 104.025C160.463 103.978 160.565 103.968 160.659 103.996C163.423 104.832 166.765 107.665 167.502 111.275C167.512 111.322 167.513 111.372 167.504 111.42C167.495 111.467 167.477 111.513 167.45 111.554C167.423 111.595 167.389 111.63 167.349 111.658C167.308 111.685 167.263 111.705 167.215 111.715L167.136 111.725Z" fill="#0F2064"/>
<path d="M153.603 113.999C153.505 113.999 153.41 113.96 153.341 113.89C153.271 113.821 153.232 113.727 153.232 113.628C153.232 113.53 153.271 113.435 153.341 113.366C153.41 113.296 153.505 113.257 153.603 113.257C156.842 113.178 158.236 112.219 159.536 110.577C159.567 110.539 159.605 110.508 159.647 110.484C159.69 110.461 159.737 110.446 159.786 110.441C159.834 110.436 159.883 110.44 159.93 110.454C159.977 110.467 160.02 110.49 160.058 110.521C160.096 110.551 160.128 110.589 160.151 110.631C160.175 110.674 160.189 110.721 160.195 110.77C160.2 110.818 160.196 110.867 160.182 110.914C160.168 110.961 160.146 111.004 160.115 111.042C158.701 112.807 157.119 113.915 153.608 114.009L153.603 113.999Z" fill="#0F2064"/>
<path d="M152.09 117.806C151.992 117.806 151.897 117.767 151.828 117.698C151.758 117.628 151.719 117.534 151.719 117.435C151.719 117.337 151.758 117.243 151.828 117.173C151.897 117.104 151.992 117.065 152.09 117.065C156.149 116.966 157.895 115.739 159.546 113.648C159.577 113.61 159.614 113.578 159.657 113.554C159.699 113.53 159.746 113.515 159.794 113.509C159.843 113.503 159.892 113.507 159.939 113.52C159.986 113.534 160.03 113.556 160.068 113.586C160.106 113.616 160.138 113.654 160.162 113.696C160.186 113.739 160.201 113.786 160.207 113.834C160.213 113.883 160.209 113.932 160.196 113.979C160.182 114.026 160.16 114.069 160.13 114.108C158.389 116.313 156.436 117.702 152.11 117.806H152.09Z" fill="#0F2064"/>
<path d="M153.618 120.496C152.673 120.486 151.731 120.387 150.804 120.199C150.714 120.175 150.635 120.118 150.585 120.039C150.535 119.959 150.517 119.864 150.534 119.771C150.552 119.679 150.604 119.597 150.68 119.541C150.756 119.486 150.85 119.461 150.943 119.473C154.933 120.239 156.876 119.403 158.953 117.712C158.991 117.68 159.034 117.655 159.082 117.639C159.129 117.624 159.179 117.618 159.228 117.621C159.278 117.625 159.326 117.639 159.371 117.661C159.415 117.683 159.455 117.714 159.487 117.752C159.519 117.789 159.544 117.833 159.56 117.88C159.575 117.928 159.582 117.977 159.578 118.027C159.574 118.077 159.561 118.125 159.538 118.169C159.516 118.214 159.485 118.253 159.447 118.286C157.857 119.738 155.772 120.529 153.618 120.496Z" fill="#0F2064"/>
<path d="M78.7426 51.0699C78.688 51.0701 78.6339 51.0583 78.5843 51.0352C78.5347 51.0122 78.4909 50.9784 78.4559 50.9364C75.7992 47.8853 72.8661 45.0863 69.6941 42.5752C69.6168 42.5142 69.5668 42.425 69.5552 42.3271C69.5436 42.2293 69.5714 42.1309 69.6323 42.0535C69.6933 41.9761 69.7825 41.9262 69.8803 41.9146C69.9782 41.903 70.0766 41.9307 70.154 41.9917C73.3671 44.5338 76.3382 47.3675 79.0294 50.4567C79.0746 50.511 79.1034 50.5771 79.1123 50.6471C79.1213 50.7172 79.11 50.7884 79.0799 50.8523C79.0498 50.9161 79.002 50.9701 78.9423 51.0078C78.8825 51.0455 78.8133 51.0653 78.7426 51.0649V51.0699Z" fill="#0F2064"/>
<path d="M70.4507 48.7755C70.3805 48.7748 70.3119 48.7542 70.2529 48.7161C67.5854 47.062 64.8047 45.5981 61.9312 44.3353C61.8833 44.3187 61.8394 44.2924 61.802 44.2581C61.7647 44.2238 61.7347 44.1823 61.7141 44.136C61.6934 44.0897 61.6825 44.0396 61.6819 43.9889C61.6814 43.9382 61.6913 43.888 61.7109 43.8412C61.7305 43.7945 61.7596 43.7523 61.7961 43.7172C61.8327 43.6821 61.8761 43.6549 61.9237 43.6373C61.9712 43.6196 62.0218 43.6119 62.0725 43.6146C62.1231 43.6173 62.1726 43.6303 62.218 43.6529C65.121 44.937 67.9298 46.424 70.6237 48.103C70.6907 48.1463 70.742 48.21 70.7699 48.2847C70.7978 48.3594 70.8009 48.4412 70.7787 48.5178C70.7565 48.5944 70.7102 48.6618 70.6467 48.71C70.5831 48.7582 70.5057 48.7846 70.4259 48.7854L70.4507 48.7755Z" fill="#0F2064"/>
<path d="M67.7906 50.9067C67.743 50.9058 67.696 50.8957 67.6522 50.877C65.2374 50.0147 62.7327 49.4291 60.1859 49.1316C60.0882 49.1185 59.9997 49.0671 59.9399 48.9887C59.8801 48.9104 59.8539 48.8115 59.867 48.7138C59.8801 48.6161 59.9315 48.5276 60.0098 48.4678C60.0882 48.408 60.1871 48.3817 60.2848 48.3948C65.1552 49.0624 67.8203 50.1452 67.934 50.1897C68.0125 50.2231 68.077 50.2826 68.1168 50.3581C68.1565 50.4336 68.1691 50.5205 68.1522 50.6041C68.1354 50.6877 68.0902 50.763 68.0243 50.8172C67.9585 50.8714 67.8759 50.9013 67.7906 50.9017V50.9067Z" fill="#0F2064"/>
<path d="M66.955 52.2861C66.8892 52.2861 66.8246 52.2685 66.7678 52.2352C66.711 52.202 66.6641 52.1542 66.6319 52.0968C66.5997 52.0394 66.5833 51.9745 66.5845 51.9087C66.5857 51.8429 66.6043 51.7787 66.6385 51.7225C67.6274 50.1155 70.5002 47.3218 72.2506 46.9213C72.2986 46.9083 72.3489 46.9051 72.3982 46.9119C72.4475 46.9188 72.495 46.9355 72.5377 46.961C72.5805 46.9866 72.6176 47.0205 72.647 47.0607C72.6763 47.1009 72.6973 47.1467 72.7086 47.1952C72.7199 47.2437 72.7213 47.294 72.7127 47.343C72.7041 47.3921 72.6858 47.4389 72.6587 47.4807C72.6317 47.5225 72.5965 47.5585 72.5552 47.5864C72.514 47.6143 72.4676 47.6336 72.4187 47.6432C70.9996 47.9695 68.2257 50.516 67.2764 52.0933C67.2448 52.1511 67.1983 52.1994 67.1418 52.2333C67.0853 52.2672 67.0208 52.2854 66.955 52.2861Z" fill="#0F2064"/>
<path d="M151.428 144.808C151.379 144.806 151.331 144.795 151.287 144.775C151.242 144.754 151.203 144.725 151.17 144.689C151.137 144.654 151.111 144.612 151.094 144.566C151.077 144.52 151.07 144.471 151.072 144.423C151.151 142.311 150.533 139.033 149.227 134.677C148.98 133.846 148.733 132.986 148.426 132.111C145.967 124.871 143.11 117.773 139.867 110.849C138.878 108.763 137.889 106.637 136.816 104.53C136.792 104.486 136.776 104.438 136.771 104.388C136.765 104.338 136.77 104.288 136.785 104.24C136.8 104.192 136.824 104.147 136.856 104.109C136.889 104.07 136.929 104.039 136.974 104.016C137.019 103.994 137.068 103.981 137.118 103.978C137.168 103.975 137.218 103.982 137.265 103.999C137.313 104.016 137.356 104.043 137.393 104.077C137.429 104.111 137.459 104.153 137.479 104.199C138.542 106.31 139.571 108.446 140.545 110.538C143.806 117.492 146.675 124.623 149.138 131.898C149.405 132.729 149.687 133.614 149.944 134.484C151.269 138.934 151.922 142.277 151.818 144.467C151.811 144.564 151.765 144.654 151.692 144.717C151.619 144.781 151.524 144.814 151.428 144.808Z" fill="#0F2064"/>
<path d="M138.873 107.927C138.787 107.927 138.703 107.897 138.636 107.842C138.569 107.786 138.524 107.709 138.508 107.624C138.493 107.539 138.507 107.451 138.549 107.375C138.592 107.3 138.659 107.241 138.74 107.21C140.866 106.394 141.583 106.192 141.613 106.182C141.704 106.165 141.798 106.182 141.877 106.231C141.956 106.28 142.013 106.357 142.038 106.447C142.063 106.536 142.054 106.632 142.011 106.715C141.969 106.797 141.897 106.861 141.81 106.894C141.81 106.894 141.084 107.101 139.007 107.883C138.966 107.906 138.92 107.921 138.873 107.927Z" fill="#0F2064"/>
<path d="M118.977 106.122C118.885 106.122 118.797 106.089 118.729 106.028C118.606 105.92 106.254 94.8487 101.384 87.0858C92.9782 73.6762 81.665 57.557 81.5513 57.3938C81.5199 57.3491 81.4987 57.298 81.4893 57.2442C81.4799 57.1903 81.4825 57.135 81.4969 57.0823C81.804 55.7689 81.8826 54.4124 81.7293 53.0723C81.5557 50.9893 81.6605 48.8925 82.0408 46.8372C82.0647 46.7464 82.1222 46.668 82.2017 46.6179C82.2811 46.5678 82.3766 46.5497 82.4689 46.5673C82.5611 46.5849 82.6433 46.6368 82.6988 46.7126C82.7542 46.7884 82.7789 46.8824 82.7677 46.9757C82.3989 48.9724 82.2975 51.0093 82.4661 53.0327C82.6154 54.3951 82.5436 55.7726 82.2535 57.112C83.3956 58.7437 94.0116 73.9234 102.032 86.6952C106.432 93.7115 117.068 103.507 118.957 105.217L122.22 101.217C122.283 101.144 122.373 101.099 122.469 101.091C122.565 101.083 122.66 101.112 122.735 101.174C122.81 101.235 122.858 101.323 122.869 101.418C122.88 101.514 122.853 101.611 122.794 101.687L119.288 105.989C119.256 106.027 119.217 106.059 119.173 106.082C119.129 106.105 119.081 106.118 119.031 106.122H118.977Z" fill="#0F2064"/>
<path d="M123.174 94.3099C123.076 94.3099 122.982 94.2708 122.912 94.2013C122.843 94.1317 122.803 94.0374 122.803 93.939C122.803 93.8407 122.843 93.7464 122.912 93.6768C122.982 93.6073 123.076 93.5682 123.174 93.5682C125.834 93.5682 126.22 93.4792 126.833 93.2715L127.328 93.0737C133.859 90.415 140.687 88.5539 147.665 87.5309C147.762 87.5172 147.861 87.5428 147.94 87.6021C148.019 87.6614 148.071 87.7497 148.085 87.8474C148.099 87.9451 148.073 88.0442 148.014 88.1231C147.954 88.2019 147.866 88.2539 147.768 88.2677C140.851 89.2811 134.08 91.1256 127.605 93.761L127.066 93.9737C126.329 94.2258 125.83 94.3099 123.174 94.3099Z" fill="#0F2064"/>
<path d="M122.482 101.82C122.388 101.825 122.295 101.792 122.223 101.73C122.152 101.668 122.107 101.581 122.097 101.487C122.088 101.393 122.115 101.299 122.172 101.224C122.23 101.149 122.314 101.099 122.408 101.084L126.364 100.288C125.375 99.1554 122.749 96.332 120.925 95.6645C120.867 95.6429 120.815 95.6072 120.775 95.5605C120.734 95.5139 120.706 95.4579 120.692 95.3975C120.692 95.3481 120.41 94.1317 120.267 93.0983C120.26 93.0499 120.263 93.0007 120.275 92.9534C120.287 92.9061 120.309 92.8616 120.338 92.8226C120.368 92.7836 120.404 92.7507 120.446 92.7259C120.489 92.7011 120.535 92.6848 120.583 92.678C120.632 92.6712 120.681 92.674 120.728 92.6862C120.776 92.6984 120.82 92.7198 120.859 92.7492C120.898 92.7786 120.931 92.8154 120.956 92.8574C120.981 92.8995 120.997 92.9461 121.004 92.9945C121.113 93.7658 121.295 94.6608 121.375 95.0464C123.847 96.1145 127.214 100.115 127.362 100.293C127.404 100.342 127.432 100.401 127.444 100.465C127.455 100.529 127.45 100.594 127.429 100.655C127.407 100.716 127.37 100.77 127.321 100.813C127.272 100.855 127.213 100.884 127.15 100.896L122.551 101.816L122.482 101.82Z" fill="#0F2064"/>
<path d="M125.854 108.011C126.601 115.858 122.7 119.754 121.469 120.674C120.237 121.594 117.365 125.584 117.365 125.584L108.717 127.423C109.419 125.624 109.636 118.701 109.636 118.701C112.133 114.894 115.293 114.32 118.447 112.699C121.602 111.077 122.21 107.467 122.21 107.467C122.21 107.467 121.063 105.667 120.173 104.278L122.482 101.45L125.513 100.842C127.694 104.011 125.854 108.011 125.854 108.011Z" fill="#A259FF"/>
<path d="M122.482 101.821C122.441 101.827 122.399 101.827 122.359 101.821C118.762 100.635 115.105 99.6442 111.401 98.8538C111.323 98.8381 111.251 98.7973 111.198 98.7376C111.144 98.6779 111.112 98.6024 111.105 98.5225C111.105 98.478 110.684 94.1713 107.757 88.7472C107.715 88.6611 107.708 88.562 107.738 88.4708C107.767 88.3796 107.831 88.3033 107.915 88.2579C107.999 88.2125 108.098 88.2016 108.19 88.2273C108.283 88.2531 108.361 88.3136 108.41 88.3961C110.108 91.4334 111.26 94.7455 111.812 98.1814C115.856 99.017 120.321 100.357 122.126 100.945C122.126 99.9218 122.126 97.5237 121.528 95.8475C121.503 95.7572 121.513 95.6608 121.557 95.5778C121.6 95.4947 121.673 95.4311 121.762 95.3998C121.85 95.3685 121.947 95.3718 122.033 95.409C122.119 95.4462 122.187 95.5145 122.225 95.6003C123.041 97.9094 122.858 101.331 122.853 101.474C122.848 101.569 122.807 101.659 122.738 101.724C122.669 101.789 122.577 101.826 122.482 101.825V101.821Z" fill="#0F2064"/>
<path d="M160.778 165.388C160.686 165.389 160.598 165.356 160.529 165.296C160.461 165.235 160.416 165.152 160.405 165.061C160.394 164.971 160.417 164.879 160.469 164.804C160.522 164.73 160.6 164.677 160.689 164.656C162.423 164.242 164.133 163.731 165.811 163.128C165.903 163.092 166.005 163.095 166.095 163.135C166.185 163.175 166.255 163.249 166.291 163.341C166.326 163.432 166.324 163.534 166.284 163.624C166.244 163.714 166.17 163.785 166.078 163.82C164.372 164.438 162.632 164.958 160.867 165.378L160.778 165.388Z" fill="white"/>
<path d="M78.3669 70.4424C78.2886 70.4418 78.2125 70.4163 78.1496 70.3698C78.0866 70.3233 78.04 70.258 78.0164 70.1834C77.9928 70.1087 77.9934 70.0285 78.0182 69.9543C78.043 69.88 78.0906 69.8155 78.1543 69.77C80.9029 67.7977 83.786 66.02 86.7825 64.4496C86.826 64.4221 86.8749 64.4039 86.9259 64.3963C86.9768 64.3887 87.0289 64.3918 87.0786 64.4054C87.1283 64.419 87.1746 64.4428 87.2146 64.4753C87.2546 64.5078 87.2874 64.5483 87.3109 64.5942C87.3344 64.6401 87.348 64.6904 87.3509 64.7419C87.3539 64.7933 87.3461 64.8449 87.328 64.8931C87.3099 64.9414 87.2819 64.9854 87.2459 65.0223C87.2099 65.0591 87.1666 65.0881 87.1187 65.1073C84.1531 66.6615 81.2998 68.4211 78.5795 70.3732C78.5176 70.4179 78.4432 70.4421 78.3669 70.4424Z" fill="#0F2064"/>
<path d="M107.322 88.8263C106.687 88.8284 106.061 88.6702 105.503 88.3665C104.888 88.0388 104.386 87.5331 104.063 86.9156C103.74 86.298 103.611 85.5974 103.693 84.9053C103.72 84.3303 103.928 83.7785 104.286 83.328C104.919 82.5715 106.002 82.3391 107.421 82.6902C107.7 82.7538 107.972 82.8397 108.237 82.9473C108.327 82.986 108.399 83.059 108.435 83.1504C108.472 83.2417 108.471 83.3438 108.432 83.4343C108.394 83.5248 108.321 83.5962 108.229 83.6328C108.138 83.6695 108.036 83.6683 107.945 83.6296C107.72 83.5392 107.489 83.4665 107.253 83.4121C106.467 83.2242 105.414 83.1401 104.855 83.8076C104.596 84.1431 104.449 84.5512 104.435 84.9746C104.371 85.5218 104.473 86.0755 104.728 86.5639C104.983 87.0523 105.378 87.453 105.864 87.7138C106.456 88.0139 107.124 88.1323 107.784 88.054C108.444 87.9757 109.066 87.7043 109.572 87.2738C109.65 87.2214 109.745 87.2006 109.837 87.2154C109.93 87.2302 110.014 87.2796 110.071 87.3536C110.129 87.4276 110.156 87.5207 110.148 87.6141C110.14 87.7076 110.097 87.7945 110.027 87.8572C109.259 88.4731 108.307 88.8142 107.322 88.8263Z" fill="#0F2064"/>
<path d="M119.822 67.6292C116.193 69.8641 106.215 73.2956 106.215 73.2956C109.923 77.9286 107.327 83.0512 107.327 83.0512C106.521 82.8583 105.26 82.7347 104.558 83.5703C97.4726 77.1424 98.7038 73.968 99.8262 72.4946C100.815 71.2189 102.204 70.0223 103.179 67.1495C105.053 61.6413 108.845 61.5968 108.761 63.5548C114.17 58.0466 117.745 59.8464 117.063 62.0715C122.536 59.0899 123.773 65.2014 119.822 67.6292Z" fill="#0F2064"/>
<path d="M104.563 83.9411C104.471 83.9399 104.383 83.9047 104.316 83.8422C98.9907 78.9916 97.3937 75.1003 99.5396 72.2671C99.7522 71.9902 99.9797 71.7182 100.222 71.4364C101.393 70.1673 102.284 68.6664 102.838 67.0308C104.232 62.9318 106.655 61.8044 107.93 62.0417C108.156 62.0763 108.371 62.1644 108.556 62.2985C108.74 62.4327 108.891 62.6091 108.994 62.8131C112.509 59.4459 115.258 59.1195 116.578 59.9008C116.854 60.0555 117.086 60.2779 117.252 60.5469C117.418 60.8159 117.513 61.1227 117.528 61.4385C119.931 60.3557 121.459 61.0776 122.102 62.1851C123.026 63.7773 122.413 66.4671 120.02 67.9406C116.816 69.9184 108.885 72.7516 106.823 73.4735C110.17 78.1263 107.688 83.1599 107.663 83.2143C107.626 83.2889 107.565 83.3486 107.49 83.3837C107.414 83.4187 107.329 83.427 107.248 83.4071C106.462 83.2192 105.409 83.1401 104.85 83.8027C104.818 83.841 104.779 83.8726 104.735 83.8956C104.691 83.9185 104.643 83.9323 104.593 83.9362L104.563 83.9411ZM107.565 62.729C106.516 62.729 104.682 63.8811 103.54 67.2483C102.954 68.9718 102.016 70.5546 100.786 71.8962C100.553 72.1731 100.331 72.4352 100.128 72.7022C98.2787 75.1299 99.767 78.6109 104.578 83.0412C105.176 82.5468 106.061 82.4034 107.139 82.6061C107.594 81.5331 109.043 77.3698 105.953 73.5081C105.915 73.4618 105.89 73.4071 105.878 73.3487C105.866 73.2903 105.869 73.2299 105.885 73.1727C105.902 73.1155 105.932 73.063 105.973 73.0199C106.014 72.9767 106.064 72.944 106.121 72.9247C106.22 72.8901 116.104 69.4635 119.654 67.2928C121.632 66.0666 122.215 63.8069 121.483 62.5411C120.806 61.3742 119.234 61.3149 117.276 62.3879C117.211 62.4239 117.137 62.4397 117.063 62.4331C116.989 62.4266 116.919 62.3981 116.861 62.3512C116.804 62.3044 116.762 62.2414 116.74 62.1703C116.719 62.0993 116.719 62.0235 116.742 61.9527C116.841 61.6945 116.846 61.4094 116.756 61.1478C116.665 60.8863 116.485 60.6652 116.247 60.5238C115.006 59.787 112.292 60.5238 109.083 63.7971C109.03 63.8499 108.962 63.8855 108.889 63.8994C108.816 63.9132 108.74 63.9046 108.672 63.8747C108.603 63.8448 108.545 63.795 108.506 63.7317C108.466 63.6685 108.447 63.5947 108.45 63.5202C108.461 63.4298 108.454 63.3382 108.429 63.2506C108.404 63.163 108.362 63.0811 108.306 63.0098C108.249 62.9385 108.179 62.8792 108.099 62.8352C108.02 62.7913 107.932 62.7636 107.841 62.7538C107.75 62.7353 107.658 62.727 107.565 62.729Z" fill="#0F2064"/>
<path d="M110.309 77.4243C110.271 77.4301 110.233 77.4301 110.195 77.4243C110.102 77.3937 110.025 77.3278 109.981 77.2407C109.936 77.1537 109.928 77.0526 109.958 76.9595C110.082 76.4549 110.319 75.9848 110.65 75.5842C110.982 75.1836 111.399 74.8627 111.871 74.6455C112.569 74.3447 113.354 74.3165 114.072 74.5664C114.118 74.5866 114.159 74.6159 114.193 74.6526C114.228 74.6893 114.254 74.7326 114.271 74.7799C114.288 74.8272 114.295 74.8774 114.292 74.9276C114.29 74.9777 114.276 75.0267 114.254 75.0717C114.232 75.1166 114.2 75.1565 114.162 75.189C114.123 75.2214 114.079 75.2457 114.031 75.2604C113.983 75.2752 113.932 75.2799 113.882 75.2745C113.832 75.2691 113.784 75.2536 113.74 75.2289C113.203 75.0801 112.63 75.1203 112.118 75.3426C111.753 75.5193 111.431 75.7738 111.175 76.0881C110.919 76.4024 110.735 76.7691 110.635 77.1622C110.613 77.2337 110.571 77.2969 110.512 77.3437C110.454 77.3905 110.383 77.4186 110.309 77.4243Z" fill="#0F2064"/>
<path d="M121.065 79.0249C121.489 78.8571 121.642 78.2394 121.407 77.6452C121.172 77.0511 120.638 76.7054 120.214 76.8732C119.79 77.041 119.637 77.6587 119.872 78.2529C120.107 78.8471 120.641 79.1927 121.065 79.0249Z" fill="#0F2064"/>
<path d="M115.72 81.0233C116.24 80.8173 116.429 80.0595 116.14 79.3308C115.852 78.602 115.196 78.1782 114.676 78.3842C114.155 78.5902 113.967 79.348 114.255 80.0767C114.544 80.8055 115.199 81.2292 115.72 81.0233Z" fill="#0F2064"/>
<path d="M116.47 74.1854C116.403 74.1856 116.337 74.1677 116.279 74.1335C116.222 74.0994 116.175 74.0504 116.143 73.9916C116.111 73.9328 116.095 73.8664 116.098 73.7996C116.101 73.7327 116.121 73.6679 116.158 73.6118C116.353 73.3151 116.612 73.0656 116.915 72.8817C117.219 72.6978 117.56 72.584 117.913 72.5488C118.243 72.505 118.578 72.5341 118.895 72.6341C119.212 72.734 119.503 72.9024 119.748 73.1273C119.796 73.1555 119.836 73.1941 119.867 73.2403C119.898 73.2864 119.918 73.3388 119.926 73.3938C119.934 73.4487 119.93 73.5047 119.913 73.5577C119.896 73.6107 119.868 73.6592 119.83 73.6997C119.792 73.7403 119.746 73.7718 119.694 73.792C119.642 73.8122 119.587 73.8205 119.531 73.8163C119.476 73.8122 119.422 73.7956 119.374 73.7679C119.326 73.7402 119.285 73.7021 119.253 73.6563C119.087 73.5081 118.89 73.3981 118.676 73.334C118.463 73.2699 118.238 73.2534 118.017 73.2855C117.773 73.3085 117.537 73.3856 117.327 73.5114C117.116 73.6371 116.937 73.8083 116.801 74.0124C116.766 74.0679 116.717 74.1133 116.659 74.1437C116.6 74.1741 116.535 74.1885 116.47 74.1854Z" fill="#0F2064"/>
<path d="M118.26 83.2786C118.167 83.2783 118.077 83.2431 118.009 83.18C117.94 83.1168 117.898 83.0302 117.891 82.9375C117.884 82.8448 117.911 82.7527 117.968 82.6794C118.026 82.6061 118.108 82.557 118.2 82.5419C120.059 82.2452 120.272 81.9139 120.277 81.909C120.277 81.5134 119.783 79.9311 117.483 77.9533C117.447 77.9209 117.417 77.8815 117.395 77.8374C117.374 77.7934 117.361 77.7456 117.358 77.6967C117.355 77.6478 117.362 77.5988 117.378 77.5525C117.394 77.5061 117.419 77.4634 117.451 77.4267C117.484 77.39 117.523 77.3601 117.567 77.3386C117.611 77.3172 117.659 77.3046 117.708 77.3016C117.757 77.2986 117.806 77.3053 117.852 77.3212C117.898 77.3372 117.941 77.3621 117.978 77.3946C120.386 79.4861 121.024 81.2414 121.019 81.9485C121.019 82.5765 120.213 82.972 118.329 83.2736L118.26 83.2786Z" fill="#0F2064"/>
<path d="M118.986 90.4628H118.927C117.374 90.2156 116.282 89.6124 115.688 88.663C115.454 88.2596 115.302 87.8138 115.241 87.3513C115.18 86.8887 115.211 86.4186 115.332 85.9682C115.349 85.9115 115.38 85.8597 115.421 85.8171C115.462 85.7745 115.513 85.7424 115.569 85.7236C115.625 85.7047 115.685 85.6995 115.744 85.7085C115.802 85.7176 115.858 85.7405 115.906 85.7754C116.635 86.2764 117.493 86.5576 118.377 86.5857C119.262 86.6137 120.135 86.3874 120.895 85.9336C120.981 85.8882 121.081 85.8782 121.174 85.9057C121.267 85.9332 121.345 85.996 121.393 86.0808C121.44 86.1655 121.452 86.2654 121.426 86.3589C121.401 86.4525 121.34 86.5324 121.256 86.5814C120.457 87.0475 119.552 87.3021 118.627 87.3212C117.702 87.3402 116.788 87.123 115.97 86.6901C115.924 87.245 116.053 87.8005 116.341 88.2773C116.836 89.0338 117.735 89.5184 119.065 89.731C119.157 89.7462 119.24 89.7952 119.297 89.8685C119.355 89.9418 119.382 90.034 119.375 90.1267C119.367 90.2194 119.325 90.3059 119.257 90.3691C119.189 90.4323 119.099 90.4675 119.006 90.4678L118.986 90.4628Z" fill="#0F2064"/>
<path d="M120.277 88.6284C120.183 88.6286 120.092 88.593 120.023 88.5287C119.954 88.4644 119.912 88.3763 119.906 88.2823L119.787 86.6803C119.784 86.6316 119.79 86.5827 119.805 86.5363C119.82 86.4899 119.845 86.4471 119.877 86.4101C119.909 86.3731 119.947 86.3428 119.991 86.3209C120.035 86.2989 120.082 86.2858 120.131 86.2822C120.18 86.2787 120.229 86.2847 120.275 86.3001C120.321 86.3154 120.364 86.3397 120.401 86.3716C120.438 86.4035 120.468 86.4424 120.49 86.4861C120.512 86.5297 120.525 86.5772 120.529 86.6259L120.648 88.2279C120.654 88.3255 120.622 88.4219 120.559 88.496C120.495 88.5701 120.404 88.6159 120.306 88.6235L120.277 88.6284Z" fill="#0F2064"/>
<path d="M118.136 93.8202C117.014 93.7978 115.898 93.6619 114.803 93.4147C114.756 93.405 114.71 93.386 114.67 93.3587C114.63 93.3314 114.595 93.2965 114.568 93.2559C114.541 93.2152 114.523 93.1697 114.513 93.1219C114.504 93.0741 114.504 93.0249 114.514 92.9772C114.524 92.9294 114.543 92.8841 114.57 92.8437C114.597 92.8034 114.632 92.7688 114.673 92.7419C114.714 92.715 114.759 92.6964 114.807 92.6872C114.855 92.6779 114.904 92.6782 114.952 92.6879C118.413 93.395 121.998 93.6768 124.875 88.7669C125.691 87.3775 124.297 74.8777 117.024 69.2607C116.985 69.2308 116.952 69.1936 116.928 69.1512C116.904 69.1089 116.888 69.0621 116.882 69.0137C116.876 68.9652 116.879 68.916 116.892 68.8689C116.905 68.8218 116.927 68.7777 116.957 68.739C116.987 68.7004 117.024 68.668 117.066 68.6438C117.109 68.6195 117.155 68.6038 117.204 68.5976C117.252 68.5914 117.301 68.5948 117.349 68.6076C117.396 68.6204 117.44 68.6424 117.478 68.6723C124.895 74.4079 126.611 87.2736 125.518 89.1377C123.343 92.8511 120.722 93.8202 118.136 93.8202Z" fill="#0F2064"/>
<path d="M140.011 222.71C136.999 222.71 133.014 222.616 128.228 222.507C124.272 222.418 119.822 222.314 115.006 222.245C114.957 222.244 114.909 222.234 114.865 222.215C114.82 222.195 114.779 222.168 114.745 222.133C114.711 222.098 114.685 222.057 114.667 222.011C114.648 221.966 114.64 221.918 114.64 221.869C114.644 221.771 114.685 221.679 114.755 221.611C114.825 221.543 114.918 221.504 115.016 221.503C119.832 221.572 124.302 221.676 128.248 221.77C136.985 221.973 143.427 222.121 145.484 221.716C145.227 219.921 144.08 211.362 144.495 205.616C144.504 205.519 144.55 205.429 144.624 205.366C144.698 205.302 144.794 205.27 144.891 205.275C144.988 205.283 145.079 205.329 145.143 205.403C145.207 205.477 145.239 205.573 145.232 205.671C144.738 212 146.221 221.839 146.221 221.938C146.234 222.026 146.216 222.116 146.169 222.191C146.121 222.267 146.049 222.322 145.964 222.349C145.118 222.616 143.066 222.71 140.011 222.71Z" fill="#0F2064"/>
<path d="M139.719 83.2786H139.674C139.577 83.2675 139.487 83.218 139.426 83.141C139.365 83.064 139.337 82.9659 139.348 82.8682C140.273 75.0855 141.677 49.4431 141.751 44.6667C141.82 40.3402 142.508 28.1371 142.646 25.6896C138.3 26.0307 131.61 25.121 123.911 24.0678C114.457 22.7822 103.747 21.3186 93.7495 21.5955C86.8272 21.7883 77.6452 22.5844 68.7648 23.3904C60.5222 24.1222 52.7346 24.8094 46.9099 25.0072C34.6821 25.4226 23.9524 25.7291 6.67126 25.6302C6.5729 25.6302 6.47858 25.5912 6.40903 25.5216C6.33948 25.4521 6.30042 25.3578 6.30042 25.2594C6.30042 25.1611 6.33948 25.0667 6.40903 24.9972C6.47858 24.9276 6.5729 24.8886 6.67126 24.8886C23.9376 24.9924 34.6573 24.6809 46.8802 24.2705C52.6851 24.0727 60.4629 23.3854 68.6955 22.6536C77.5957 21.8674 86.7876 21.0516 93.7248 20.8588C103.802 20.5769 114.546 22.0405 124.025 23.331C131.936 24.4089 138.779 25.3435 143.022 24.9083C143.076 24.9025 143.13 24.9084 143.181 24.9257C143.232 24.943 143.279 24.9712 143.318 25.0084C143.357 25.0456 143.387 25.0908 143.407 25.141C143.427 25.1912 143.435 25.2451 143.432 25.299C143.432 25.4424 142.587 39.8903 142.513 44.6717C142.438 49.453 141.029 75.1449 140.105 82.9473C140.095 83.0413 140.049 83.1279 139.977 83.1895C139.906 83.251 139.813 83.2829 139.719 83.2786Z" fill="#0F2064"/>
<path d="M60.7446 16.3097C69.3728 16.1119 82.6835 16.0427 88.1423 16.0229C88.8157 16.0202 89.4648 16.2745 89.9573 16.7339C90.4498 17.1932 90.7485 17.8232 90.7925 18.4952C91.0447 21.8772 91.4848 27.964 91.6677 31.5883C91.6865 31.9463 91.6323 32.3045 91.5084 32.6409C91.3845 32.9773 91.1935 33.2851 90.947 33.5454C90.7005 33.8058 90.4037 34.0133 90.0745 34.1554C89.7454 34.2975 89.3908 34.3712 89.0323 34.3721C82.99 34.3721 68.3839 34.4957 60.9769 34.9902C60.6124 35.0148 60.2466 34.9636 59.9028 34.8399C59.559 34.7161 59.2445 34.5225 58.9793 34.2711C58.714 34.0198 58.5037 33.7163 58.3616 33.3796C58.2195 33.043 58.1487 32.6805 58.1536 32.3152C58.1932 28.854 58.2426 23.0095 58.1536 19.0391C58.1431 18.6894 58.2019 18.3411 58.3267 18.0142C58.4514 17.6873 58.6397 17.3884 58.8805 17.1347C59.1214 16.8809 59.4101 16.6774 59.7301 16.5358C60.05 16.3942 60.3948 16.3174 60.7446 16.3097Z" fill="#0F2064"/>
<path d="M80.4535 23.326C80.3968 23.3254 80.341 23.3119 80.2903 23.2864C79.4052 22.8463 77.7538 20.0675 76.9478 17.1502C76.394 15.1724 76.0281 12.3095 77.4076 10.1488C79.0987 7.49849 79.5437 4.53177 78.5103 2.73196C77.6697 1.28815 75.8798 0.595914 73.3333 0.75414C70.604 0.897531 69.5063 2.31661 69.0662 3.47858C68.7282 4.49299 68.6707 5.57989 68.8996 6.62433C69.1285 7.66877 69.6354 8.63195 70.3666 9.41203C70.402 9.44644 70.4303 9.48749 70.4498 9.53283C70.4693 9.57816 70.4797 9.6269 70.4804 9.67626C70.4811 9.72562 70.4721 9.77463 70.4538 9.82049C70.4356 9.86636 70.4085 9.90818 70.374 9.94357C70.3396 9.97895 70.2986 10.0072 70.2532 10.0267C70.2079 10.0463 70.1592 10.0567 70.1098 10.0574C70.0604 10.058 70.0114 10.049 69.9656 10.0308C69.9197 10.0125 69.8779 9.9854 69.8425 9.95098C69.0047 9.07146 68.4235 7.9794 68.162 6.79315C67.9006 5.60691 67.9687 4.37173 68.3591 3.22147C69.0909 1.28321 70.8314 0.150905 73.3037 0.0174025C76.8934 -0.17049 78.4707 1.19915 79.158 2.38584C80.3447 4.42299 79.9096 7.62705 78.0405 10.5493C76.8044 12.4826 77.1555 15.0982 77.6697 16.9772C78.5053 20.0032 80.142 22.4162 80.6364 22.6486C80.7111 22.6861 80.7709 22.7478 80.8061 22.8236C80.8413 22.8994 80.8499 22.9849 80.8304 23.0662C80.811 23.1475 80.7646 23.2198 80.6989 23.2715C80.6331 23.3231 80.5519 23.351 80.4683 23.3507L80.4535 23.326Z" fill="#0F2064"/>
<path d="M69.3035 23.326C69.2398 23.3257 69.1772 23.309 69.1217 23.2774C69.0663 23.2459 69.02 23.2006 68.9872 23.1459C68.9544 23.0912 68.9362 23.029 68.9345 22.9653C68.9327 22.9016 68.9474 22.8384 68.9772 22.7821C70.51 19.845 71.4841 12.7941 70.6039 10.9943C70.5825 10.9504 70.5699 10.9028 70.5669 10.8541C70.5639 10.8054 70.5705 10.7566 70.5863 10.7105C70.6022 10.6643 70.6269 10.6218 70.6592 10.5852C70.6915 10.5486 70.7307 10.5188 70.7745 10.4973C70.8184 10.4759 70.866 10.4633 70.9147 10.4603C70.9634 10.4573 71.0122 10.4639 71.0583 10.4797C71.1045 10.4956 71.147 10.5203 71.1836 10.5526C71.2202 10.5849 71.25 10.6241 71.2715 10.6679C72.2604 12.6457 71.2714 19.9834 69.6348 23.1232C69.6037 23.1843 69.5563 23.2356 69.4978 23.2714C69.4394 23.3072 69.3721 23.3261 69.3035 23.326Z" fill="#0F2064"/>
<path d="M80.4536 23.3259C80.3969 23.3254 80.3411 23.3118 80.2904 23.2864C79.4597 22.871 77.8528 20.2207 77.027 17.4271C77.0147 17.3794 77.0119 17.3297 77.0187 17.2809C77.0256 17.232 77.042 17.1851 77.067 17.1426C77.0921 17.1001 77.1252 17.063 77.1646 17.0333C77.2039 17.0037 77.2488 16.982 77.2965 16.9697C77.3442 16.9574 77.3939 16.9546 77.4427 16.9614C77.4915 16.9683 77.5385 16.9847 77.581 17.0097C77.6235 17.0347 77.6606 17.0679 77.6902 17.1073C77.7199 17.1466 77.7415 17.1915 77.7539 17.2392C78.5895 20.0774 80.1174 22.3865 80.6365 22.6485C80.7112 22.6861 80.771 22.7478 80.8062 22.8236C80.8414 22.8994 80.85 22.9849 80.8305 23.0662C80.8111 23.1474 80.7647 23.2198 80.699 23.2714C80.6333 23.323 80.552 23.351 80.4684 23.3506L80.4536 23.3259Z" fill="white"/>
<path d="M69.3035 23.326C69.2398 23.3257 69.1772 23.309 69.1217 23.2774C69.0663 23.2459 69.02 23.2006 68.9872 23.1459C68.9544 23.0912 68.9362 23.029 68.9345 22.9653C68.9327 22.9016 68.9474 22.8385 68.9772 22.7821C69.7456 21.0965 70.27 19.31 70.5347 17.4766C70.5511 17.3795 70.6054 17.293 70.6856 17.2359C70.7658 17.1789 70.8654 17.1561 70.9624 17.1725C71.0595 17.1889 71.146 17.2431 71.203 17.3234C71.2601 17.4036 71.2829 17.5031 71.2665 17.6002C70.9882 19.5095 70.4388 21.3692 69.6348 23.1232C69.6037 23.1844 69.5563 23.2357 69.4978 23.2714C69.4394 23.3072 69.3721 23.3261 69.3035 23.326Z" fill="white"/>
<path d="M145.741 88.5197C145.643 88.5197 145.549 88.4806 145.479 88.4111C145.409 88.3415 145.37 88.2472 145.37 88.1488C145.415 73.1619 145.796 58.6596 145.979 56.0736C146.048 55.1094 146.107 53.013 146.176 50.3528C146.325 45.0127 146.523 37.6997 146.997 31.8998C147.006 31.8018 147.053 31.7112 147.128 31.6474C147.203 31.5836 147.3 31.5517 147.398 31.5586C147.446 31.5623 147.494 31.5757 147.538 31.5979C147.581 31.6201 147.62 31.6506 147.652 31.6879C147.683 31.7251 147.707 31.7682 147.722 31.8148C147.737 31.8613 147.743 31.9104 147.739 31.9591C147.244 37.7393 147.066 45.0424 146.923 50.3726C146.849 53.0426 146.79 55.149 146.72 56.128C146.537 58.7041 146.157 73.1817 146.112 88.1538C146.111 88.2513 146.071 88.3443 146.002 88.4128C145.932 88.4813 145.839 88.5197 145.741 88.5197Z" fill="#0F2064"/>
<path d="M87.3413 222.354C72.8093 222.23 58.3415 221.483 45.5797 220.821C32.3283 220.133 20.8867 219.545 13.4946 219.881C13.4458 219.885 13.3967 219.879 13.3504 219.864C13.304 219.848 13.2614 219.823 13.2252 219.79C13.1891 219.757 13.16 219.717 13.14 219.672C13.12 219.627 13.1094 219.579 13.1089 219.53C13.1049 219.433 13.1395 219.337 13.2052 219.265C13.2709 219.193 13.3625 219.15 13.46 219.145C20.8768 218.808 32.3481 219.397 45.5995 220.084C58.3564 220.742 72.7944 221.493 87.3314 221.617C87.4297 221.617 87.5241 221.656 87.5936 221.725C87.6631 221.795 87.7022 221.889 87.7022 221.988C87.7022 222.086 87.6631 222.18 87.5936 222.25C87.5241 222.319 87.4297 222.359 87.3314 222.359L87.3413 222.354Z" fill="#0F2064"/>
<path d="M138.191 218.353C138.126 218.358 138.062 218.348 138.001 218.325C137.94 218.302 137.885 218.266 137.84 218.22C136.851 218.141 134.577 218.007 129.434 217.765C129.337 217.76 129.245 217.717 129.179 217.644C129.114 217.572 129.079 217.477 129.083 217.379C129.091 217.283 129.135 217.193 129.207 217.127C129.278 217.062 129.372 217.027 129.469 217.028C134.31 217.256 136.708 217.369 137.899 217.488C138.038 216.499 138.132 213.142 137.964 207.495C137.962 207.447 137.971 207.398 137.988 207.353C138.005 207.307 138.032 207.265 138.065 207.23C138.099 207.195 138.139 207.166 138.183 207.146C138.228 207.127 138.276 207.116 138.325 207.115C138.374 207.111 138.423 207.118 138.47 207.135C138.516 207.151 138.558 207.177 138.594 207.211C138.63 207.245 138.658 207.286 138.678 207.332C138.697 207.377 138.706 207.426 138.705 207.475C138.799 210.675 138.893 215.758 138.611 217.587C139.071 217.681 139.066 217.79 139.066 217.968C139.066 218.339 138.735 218.353 138.191 218.353Z" fill="#0F2064"/>
<path d="M53.8915 216.593C37.8959 216.593 25.2725 215.94 7.83804 213.587C7.78966 213.58 7.74304 213.564 7.70083 213.54C7.65862 213.515 7.62166 213.483 7.59204 213.444C7.53223 213.366 7.506 213.267 7.51911 213.169C7.53223 213.071 7.58361 212.983 7.66197 212.923C7.74032 212.863 7.83923 212.837 7.93693 212.85C32.7832 216.203 47.8542 216.099 76.9132 215.57C80.2805 215.51 82.3819 215.431 84.0631 215.367C87.2424 215.248 89.0076 215.184 95.1092 215.397C95.1579 215.398 95.2057 215.41 95.25 215.43C95.2943 215.451 95.3341 215.48 95.3671 215.516C95.4002 215.551 95.4259 215.593 95.4427 215.639C95.4595 215.685 95.4671 215.734 95.4652 215.782C95.4588 215.88 95.4153 215.971 95.3435 216.037C95.2717 216.104 95.1772 216.14 95.0795 216.138C88.9878 215.931 87.2473 215.995 84.0878 216.109C82.3967 216.173 80.2953 216.247 76.9231 216.311C68.201 216.474 60.7347 216.593 53.8915 216.593Z" fill="#0F2064"/>
<path d="M7.16572 210.546C7.07768 210.546 6.99252 210.515 6.92548 210.457C6.85845 210.4 6.8139 210.321 6.79982 210.234C0.658699 173.521 0.263138 162.342 0.0109669 142.494C-0.167037 128.521 1.85528 105.321 3.6452 84.8558C4.45116 75.6441 5.20767 66.9417 5.62301 60.5385C6.32019 49.7842 5.62302 44.3996 4.97528 39.6528C4.43633 35.6131 3.98638 32.1272 4.58467 26.347C4.58783 26.2971 4.60108 26.2483 4.62361 26.2036C4.64615 26.1589 4.6775 26.1192 4.71578 26.0869C4.75406 26.0546 4.79848 26.0305 4.84636 26.0158C4.89423 26.0012 4.94458 25.9964 4.99435 26.0018C5.04413 26.0071 5.09231 26.0225 5.13599 26.0469C5.17967 26.0714 5.21795 26.1045 5.24851 26.1441C5.27907 26.1838 5.30128 26.2292 5.31381 26.2777C5.32633 26.3261 5.32891 26.3767 5.3214 26.4262C4.72311 32.1173 5.18295 35.5637 5.71202 39.5588C6.34987 44.3452 7.07176 49.7644 6.3647 60.5929C5.94935 67.0208 5.18789 75.7084 4.38688 84.925C2.6019 105.376 0.579586 128.556 0.75759 142.489C1.00976 162.322 1.40533 173.477 7.53656 210.141C7.55225 210.238 7.52877 210.337 7.47129 210.417C7.4138 210.496 7.32701 210.55 7.22999 210.566L7.16572 210.546Z" fill="#0F2064"/>
<path d="M19.2105 59.1393C19.2105 62.0516 21.5691 63.4212 24.4814 63.4212C27.3937 63.4212 29.7523 62.0516 29.7523 59.1393C29.7523 56.2269 27.3937 54.3629 24.4814 54.3629C21.5691 54.3629 19.2105 56.2269 19.2105 59.1393Z" fill="#A259FF"/>
<path d="M24.4815 59.876C24.4231 59.8762 24.3655 59.8627 24.3133 59.8364C24.2342 59.7969 22.3652 58.7931 19.8385 53.0426C19.8077 52.9544 19.8113 52.8578 19.8486 52.7721C19.8859 52.6864 19.9542 52.618 20.0398 52.5805C20.1254 52.543 20.222 52.5392 20.3103 52.5699C20.3986 52.6006 20.472 52.6635 20.5159 52.746C22.38 56.9884 23.8486 58.5212 24.4073 58.9959C25.4358 57.6707 29.8957 52.1032 34.6277 48.5382C34.7063 48.4792 34.8052 48.4538 34.9026 48.4677C35 48.4816 35.0878 48.5336 35.1468 48.6123C35.2058 48.691 35.2312 48.7899 35.2173 48.8873C35.2034 48.9846 35.1513 49.0725 35.0727 49.1315C29.782 53.1168 24.8226 59.6634 24.7732 59.7326C24.7386 59.7771 24.6944 59.8131 24.6439 59.838C24.5933 59.8628 24.5378 59.8758 24.4815 59.876Z" fill="#0F2064"/>
<path d="M18.7161 85.5875C18.7161 88.4999 21.5691 90.8584 24.4814 90.8584C27.3938 90.8584 29.2579 88.4999 29.2579 85.5875C29.2579 82.6752 27.3938 80.3167 24.4814 80.3167C21.5691 80.3167 18.7161 82.6752 18.7161 85.5875Z" fill="#A259FF"/>
<path d="M24.4815 86.3193C24.4231 86.3196 24.3655 86.306 24.3133 86.2798C24.2342 86.2402 22.3652 85.2365 19.8385 79.486C19.8077 79.3978 19.8113 79.3012 19.8486 79.2155C19.8859 79.1298 19.9542 79.0614 20.0398 79.0239C20.1254 78.9864 20.222 78.9826 20.3103 79.0133C20.3986 79.044 20.472 79.1068 20.5159 79.1893C22.38 83.4317 23.8486 84.9645 24.4073 85.4392C25.4358 84.1141 29.8957 78.5465 34.6277 74.9815C34.6666 74.9523 34.7109 74.931 34.7581 74.9189C34.8053 74.9069 34.8544 74.9042 34.9026 74.9111C34.9508 74.918 34.9972 74.9343 35.0391 74.9591C35.081 74.9839 35.1176 75.0167 35.1468 75.0557C35.176 75.0946 35.1973 75.139 35.2094 75.1862C35.2215 75.2333 35.2242 75.2824 35.2173 75.3306C35.2104 75.3788 35.1941 75.4252 35.1693 75.4671C35.1445 75.509 35.1116 75.5456 35.0727 75.5749C29.7919 79.5404 24.8474 86.1067 24.7781 86.171C24.7436 86.2171 24.6988 86.2544 24.6473 86.2802C24.5958 86.3059 24.539 86.3193 24.4815 86.3193Z" fill="#0F2064"/>
<path d="M19.2105 111.537C19.2105 112.934 19.7659 114.275 20.7543 115.264C21.7428 116.252 23.0835 116.807 24.4814 116.807C27.3937 116.807 29.7523 114.943 29.7523 112.031C29.7556 111.337 29.6216 110.649 29.3582 110.006C29.0948 109.364 28.707 108.78 28.2173 108.288C27.7275 107.796 27.1453 107.405 26.5042 107.139C25.8631 106.873 25.1757 106.735 24.4814 106.735C21.5691 106.735 19.2105 108.624 19.2105 111.537Z" fill="#A259FF"/>
<path d="M24.4815 112.768C24.4231 112.768 24.3655 112.755 24.3133 112.728C24.2342 112.689 22.3652 111.685 19.8385 105.934C19.8077 105.846 19.8113 105.75 19.8486 105.664C19.8859 105.578 19.9542 105.51 20.0398 105.472C20.1254 105.435 20.222 105.431 20.3103 105.462C20.3986 105.492 20.472 105.555 20.5159 105.638C22.38 109.88 23.8486 111.413 24.4073 111.888C25.4358 110.563 29.8957 104.995 34.6277 101.43C34.6666 101.401 34.7109 101.38 34.7581 101.367C34.8053 101.355 34.8544 101.353 34.9026 101.36C34.9508 101.366 34.9972 101.383 35.0391 101.408C35.081 101.432 35.1176 101.465 35.1468 101.504C35.176 101.543 35.1973 101.587 35.2094 101.635C35.2215 101.682 35.2242 101.731 35.2173 101.779C35.2104 101.827 35.1941 101.874 35.1693 101.916C35.1445 101.958 35.1116 101.994 35.0727 102.023C29.7919 105.999 24.8474 112.55 24.7781 112.619C24.7436 112.666 24.6988 112.703 24.6473 112.729C24.5958 112.754 24.539 112.768 24.4815 112.768Z" fill="#0F2064"/>
<path d="M19.7001 134.529C18.4986 137.179 20.1253 140.512 22.7756 141.713C24.0496 142.29 25.5007 142.337 26.8095 141.845C28.1184 141.352 29.1778 140.359 29.7548 139.085C30.3318 137.811 30.3791 136.36 29.8863 135.051C29.3934 133.742 28.4008 132.683 27.1268 132.106C24.4765 130.904 20.8917 131.878 19.7001 134.529Z" fill="#A259FF"/>
<path d="M24.4815 137.54C24.4231 137.54 24.3654 137.527 24.3133 137.5C24.2342 137.461 22.3652 136.457 19.8385 130.707C19.8077 130.618 19.8113 130.522 19.8486 130.436C19.8859 130.35 19.9542 130.282 20.0398 130.244C20.1254 130.207 20.222 130.203 20.3103 130.234C20.3986 130.264 20.472 130.327 20.5159 130.41C22.38 134.652 23.8486 136.185 24.4073 136.66C25.4358 135.335 29.8957 129.767 34.6277 126.202C34.7063 126.143 34.8052 126.118 34.9026 126.132C35 126.146 35.0878 126.198 35.1468 126.276C35.2058 126.355 35.2312 126.454 35.2173 126.551C35.2034 126.649 35.1513 126.736 35.0727 126.795C29.7919 130.776 24.8474 137.327 24.7781 137.392C24.7436 137.438 24.6988 137.475 24.6473 137.501C24.5958 137.526 24.539 137.54 24.4815 137.54Z" fill="#0F2064"/>
<path d="M18.533 161.452C19.6307 164.147 22.2513 165.63 24.9609 164.532C27.6705 163.434 28.4963 160.542 27.3986 157.847C26.3009 155.152 23.6803 153.669 20.9707 154.767C18.2611 155.864 17.4304 158.757 18.533 161.452Z" fill="#A259FF"/>
<path d="M22.9585 160.384C22.9001 160.384 22.8425 160.37 22.7904 160.344C22.7113 160.305 20.8422 159.301 18.3156 153.55C18.2916 153.505 18.2772 153.456 18.2732 153.405C18.2693 153.354 18.2759 153.303 18.2926 153.254C18.3094 153.206 18.336 153.162 18.3706 153.124C18.4053 153.087 18.4474 153.057 18.4942 153.036C18.541 153.016 18.5915 153.005 18.6426 153.005C18.6936 153.005 18.7442 153.016 18.791 153.036C18.8379 153.056 18.88 153.086 18.9147 153.124C18.9495 153.161 18.9761 153.205 18.993 153.254C20.8571 157.496 22.3256 159.029 22.8843 159.503C23.9128 158.178 28.3728 152.611 33.1047 149.046C33.1437 149.017 33.188 148.995 33.2352 148.983C33.2823 148.971 33.3314 148.968 33.3797 148.975C33.4279 148.982 33.4743 148.999 33.5162 149.023C33.5581 149.048 33.5947 149.081 33.6239 149.12C33.6531 149.159 33.6744 149.203 33.6864 149.25C33.6985 149.298 33.7012 149.347 33.6943 149.395C33.6874 149.443 33.6711 149.489 33.6463 149.531C33.6215 149.573 33.5887 149.61 33.5497 149.639C28.264 153.619 23.2997 160.171 23.2502 160.24C23.2157 160.285 23.1715 160.321 23.1209 160.346C23.0704 160.37 23.0148 160.383 22.9585 160.384Z" fill="#0F2064"/>
<path d="M18.9633 182.491C18.9633 185.403 21.3219 187.267 24.2342 187.267C27.1465 187.267 29.5051 185.403 29.5051 182.491C29.5051 179.578 27.641 177.22 24.7286 177.22C21.8163 177.22 18.9633 179.578 18.9633 182.491Z" fill="#A259FF"/>
<path d="M24.2391 183.222C24.1807 183.223 24.1231 183.209 24.071 183.183C23.9919 183.143 22.1228 182.14 19.5962 176.389C19.5722 176.344 19.5577 176.294 19.5538 176.243C19.5498 176.193 19.5565 176.141 19.5732 176.093C19.59 176.045 19.6165 176.001 19.6512 175.963C19.6859 175.926 19.728 175.896 19.7747 175.875C19.8215 175.855 19.8721 175.844 19.9231 175.844C19.9742 175.844 20.0248 175.854 20.0716 175.875C20.1184 175.895 20.1606 175.925 20.1953 175.963C20.2301 176 20.2567 176.044 20.2736 176.092C22.1377 180.335 23.6062 181.868 24.1649 182.342C25.1934 181.017 29.6534 175.45 34.3853 171.885C34.464 171.826 34.5629 171.8 34.6602 171.814C34.7576 171.828 34.8454 171.88 34.9045 171.959C34.9635 172.037 34.9888 172.136 34.9749 172.234C34.961 172.331 34.909 172.419 34.8303 172.478C29.5396 176.463 24.5803 183.01 24.5308 183.079C24.4963 183.124 24.452 183.16 24.4015 183.184C24.351 183.209 24.2954 183.222 24.2391 183.222Z" fill="#0F2064"/>
<path d="M40.8774 58.7733C40.7791 58.7733 40.6848 58.7343 40.6152 58.6647C40.5457 58.5952 40.5066 58.5009 40.5066 58.4025C40.5066 58.3041 40.5457 58.2098 40.6152 58.1403C40.6848 58.0707 40.7791 58.0317 40.8774 58.0317C50.4253 57.3889 64.6112 57.4482 72.206 57.5372C72.2547 57.5379 72.3028 57.5481 72.3476 57.5673C72.3923 57.5866 72.4328 57.6144 72.4668 57.6493C72.5008 57.6842 72.5276 57.7255 72.5456 57.7707C72.5636 57.8159 72.5726 57.8643 72.5719 57.913C72.5658 58.0097 72.524 58.1008 72.4546 58.1684C72.3851 58.236 72.293 58.2754 72.1961 58.2789C64.6063 58.1849 50.4402 58.1306 40.9269 58.7733H40.8774Z" fill="#0F2064"/>
<path d="M107.1 57.7846L84.612 57.5126C84.5136 57.5126 84.4193 57.4735 84.3498 57.404C84.2802 57.3345 84.2411 57.2401 84.2411 57.1418C84.2411 57.0434 84.2802 56.9491 84.3498 56.8795C84.4193 56.81 84.5136 56.7709 84.612 56.7709L107.1 57.0429C107.198 57.0429 107.292 57.082 107.362 57.1515C107.432 57.221 107.471 57.3154 107.471 57.4137C107.471 57.5121 107.432 57.6064 107.362 57.676C107.292 57.7455 107.198 57.7846 107.1 57.7846Z" fill="#0F2064"/>
<path d="M71.0343 64.4349C68.8884 64.4349 65.2987 64.1975 61.2837 63.9404C54.3959 63.4806 45.8221 62.907 41.5747 63.3817C41.5258 63.3883 41.4761 63.3851 41.4284 63.3722C41.3808 63.3594 41.3362 63.3372 41.2972 63.3069C41.2583 63.2766 41.2258 63.2388 41.2016 63.1957C41.1774 63.1527 41.1621 63.1053 41.1565 63.0562C41.1509 63.0072 41.1552 62.9575 41.169 62.9101C41.1828 62.8628 41.206 62.8186 41.2371 62.7803C41.2683 62.742 41.3067 62.7103 41.3503 62.6871C41.3938 62.6638 41.4415 62.6495 41.4907 62.6449C45.8023 62.1505 54.4157 62.7389 61.3331 63.1987C66.5298 63.5448 71.0145 63.8465 72.4583 63.6388C72.556 63.625 72.6552 63.6506 72.734 63.71C72.8128 63.7693 72.8649 63.8575 72.8786 63.9552C72.8924 64.0529 72.8668 64.1521 72.8074 64.2309C72.7481 64.3097 72.6599 64.3618 72.5622 64.3755C72.0547 64.4282 71.5443 64.448 71.0343 64.4349Z" fill="#0F2064"/>
<path d="M82.2732 83.4961C80.1125 83.4961 76.8787 83.4714 73.0121 83.4368C63.306 83.3577 50.0101 83.2489 40.8726 83.4368C40.7743 83.4368 40.6799 83.3977 40.6104 83.3282C40.5408 83.2586 40.5018 83.1643 40.5018 83.0659C40.5018 82.9676 40.5408 82.8733 40.6104 82.8037C40.6799 82.7342 40.7743 82.6951 40.8726 82.6951C50.0101 82.4874 63.3109 82.5962 73.0121 82.6951C78.0012 82.7347 81.9469 82.7693 83.8654 82.7445C83.9637 82.7445 84.058 82.7836 84.1276 82.8532C84.1971 82.9227 84.2362 83.017 84.2362 83.1154C84.2362 83.2137 84.1971 83.3081 84.1276 83.3776C84.058 83.4472 83.9637 83.4862 83.8654 83.4862L82.2732 83.4961Z" fill="#0F2064"/>
<path d="M50.8901 91.2294C50.8456 91.2294 46.44 91.1305 41.535 90.9822C41.4863 90.9809 41.4383 90.9701 41.3938 90.9502C41.3493 90.9304 41.3092 90.902 41.2756 90.8666C41.2421 90.8313 41.2159 90.7896 41.1985 90.7442C41.181 90.6987 41.1727 90.6502 41.1741 90.6015C41.1779 90.5035 41.2199 90.411 41.291 90.3436C41.3621 90.2761 41.4568 90.2391 41.5548 90.2405C46.4697 90.3889 50.8604 90.4877 50.9049 90.4877C51.0033 90.4877 51.0976 90.5268 51.1671 90.5964C51.2367 90.6659 51.2758 90.7602 51.2758 90.8586C51.2758 90.9569 51.2367 91.0513 51.1671 91.1208C51.0976 91.1904 51.0033 91.2294 50.9049 91.2294H50.8901Z" fill="#0F2064"/>
<path d="M69.5114 113.534C59.7706 113.534 49.5354 113.356 43.9728 112.763C43.9229 112.76 43.8741 112.746 43.8294 112.724C43.7846 112.701 43.745 112.67 43.7127 112.632C43.6804 112.593 43.6563 112.549 43.6416 112.501C43.627 112.453 43.6222 112.403 43.6275 112.353C43.6329 112.303 43.6483 112.255 43.6727 112.211C43.6972 112.168 43.7302 112.129 43.7699 112.099C43.8096 112.068 43.855 112.046 43.9035 112.034C43.9519 112.021 44.0024 112.019 44.0519 112.026C56.5023 113.361 92.4095 112.585 93.4973 112.456C93.5458 112.45 93.595 112.454 93.6421 112.467C93.6892 112.48 93.7331 112.502 93.7714 112.533C93.8097 112.563 93.8414 112.601 93.8648 112.644C93.8883 112.687 93.9028 112.734 93.9077 112.783C93.9189 112.88 93.8907 112.978 93.8295 113.055C93.7683 113.132 93.6791 113.182 93.5814 113.193C92.9782 113.262 81.6304 113.534 69.5114 113.534Z" fill="#0F2064"/>
<path d="M80.2261 137.54C79.9591 137.54 53.6245 136.892 40.7143 136.215C40.6656 136.212 40.6178 136.2 40.5738 136.179C40.5298 136.158 40.4903 136.129 40.4577 136.092C40.4251 136.056 40.4 136.014 40.3838 135.968C40.3676 135.922 40.3606 135.873 40.3633 135.824C40.3644 135.775 40.3757 135.727 40.3962 135.682C40.4168 135.637 40.4462 135.597 40.4828 135.564C40.5194 135.531 40.5623 135.506 40.6089 135.491C40.6555 135.475 40.7049 135.469 40.7539 135.473C53.6492 136.15 79.9789 136.793 80.241 136.798C80.3393 136.798 80.4336 136.837 80.5032 136.907C80.5727 136.976 80.6118 137.071 80.6118 137.169C80.6118 137.267 80.5727 137.362 80.5032 137.431C80.4336 137.501 80.3393 137.54 80.241 137.54H80.2261Z" fill="#0F2064"/>
<path d="M66.0648 144.705H66.0253C65.9115 144.705 54.6528 143.557 44.1506 142.45C44.0562 142.435 43.9709 142.385 43.9125 142.31C43.8542 142.234 43.8274 142.139 43.8376 142.044C43.8478 141.949 43.8942 141.861 43.9673 141.8C44.0404 141.738 44.1344 141.707 44.2297 141.713C54.7171 142.821 65.9857 143.958 66.0994 143.968C66.1978 143.972 66.2903 144.016 66.3566 144.089C66.4229 144.161 66.4575 144.258 66.453 144.356C66.4484 144.454 66.4049 144.547 66.3321 144.613C66.2593 144.679 66.1632 144.714 66.0648 144.709V144.705Z" fill="#0F2064"/>
<path d="M59.0636 161.368C53.3403 161.419 47.62 161.088 41.9406 160.379C41.8923 160.372 41.8457 160.356 41.8036 160.331C41.7615 160.306 41.7247 160.273 41.6954 160.234C41.636 160.155 41.6104 160.056 41.6242 159.958C41.638 159.861 41.69 159.773 41.7688 159.713C41.8476 159.654 41.9468 159.628 42.0445 159.642C54.0548 161.298 69.9168 160.552 81.1063 159.642C85.6009 159.344 90.1103 159.344 94.6049 159.642C94.6536 159.646 94.7011 159.659 94.7448 159.681C94.7884 159.703 94.8273 159.733 94.8592 159.77C94.8911 159.807 94.9154 159.85 94.9308 159.896C94.9461 159.942 94.9521 159.991 94.9486 160.04C94.945 160.089 94.9319 160.136 94.9099 160.18C94.888 160.224 94.8577 160.262 94.8207 160.294C94.7838 160.326 94.7409 160.351 94.6945 160.366C94.6482 160.381 94.5992 160.387 94.5505 160.384C90.0938 160.089 85.6224 160.089 81.1657 160.384C74.7872 160.903 66.9056 161.368 59.0636 161.368Z" fill="#0F2064"/>
<path d="M72.3149 184.795H72.2407C69.3036 184.216 63.8053 184.162 57.9806 184.108C51.4687 184.043 44.7342 183.979 39.9627 183.227C39.8657 183.212 39.7789 183.158 39.7214 183.078C39.664 182.998 39.6405 182.899 39.6562 182.802C39.6732 182.706 39.7271 182.62 39.8065 182.562C39.8859 182.505 39.9846 182.481 40.0814 182.496C44.7985 183.242 51.5033 183.306 57.9905 183.366C63.8498 183.42 69.363 183.475 72.3841 184.068C72.4769 184.083 72.5605 184.133 72.6179 184.207C72.6754 184.282 72.7025 184.375 72.6937 184.469C72.6849 184.562 72.6409 184.649 72.5706 184.711C72.5002 184.774 72.4088 184.807 72.3149 184.805V184.795Z" fill="#0F2064"/>
<path d="M60.888 192.355C60.7892 192.355 51.0435 191.742 41.4956 191.074C41.4468 191.071 41.3992 191.059 41.3554 191.037C41.3116 191.015 41.2725 190.985 41.2403 190.949C41.2082 190.912 41.1836 190.869 41.168 190.823C41.1524 190.776 41.1461 190.728 41.1494 190.679C41.157 190.581 41.2027 190.49 41.2766 190.425C41.3506 190.36 41.4469 190.327 41.545 190.333C51.088 191.005 60.8287 191.608 60.9276 191.613C61.0259 191.613 61.1203 191.652 61.1898 191.722C61.2594 191.792 61.2984 191.886 61.2984 191.984C61.2984 192.083 61.2594 192.177 61.1898 192.246C61.1203 192.316 61.0259 192.355 60.9276 192.355H60.888Z" fill="#0F2064"/>
<path d="M112.188 146.381C112.1 146.383 112.015 146.353 111.949 146.296C111.882 146.24 111.839 146.161 111.827 146.074C111.787 145.802 111.748 145.545 111.703 145.283C109.597 132.996 97.2056 109.539 91.9743 100.026C87.8209 92.4606 83.5686 83.5209 82.1742 79.9163C80.7799 76.3118 73.6943 60.4942 73.1949 59.3866C69.917 56.2394 66.016 53.8139 61.7434 52.2665C61.6503 52.2337 61.574 52.1653 61.5314 52.0762C61.4887 51.9872 61.4832 51.8849 61.5159 51.7918C61.5487 51.6987 61.6172 51.6224 61.7062 51.5798C61.7952 51.5371 61.8975 51.5316 61.9906 51.5643C66.4012 53.1544 70.4253 55.6602 73.7982 58.9169C73.8269 58.9474 73.8503 58.9825 73.8674 59.0207C73.9416 59.1888 81.4672 75.9162 82.8912 79.6543C84.2608 83.2341 88.5082 92.1343 92.6468 99.6698C97.8929 109.218 110.328 132.759 112.455 145.16C112.504 145.427 112.539 145.694 112.578 145.951C112.593 146.049 112.568 146.149 112.51 146.229C112.452 146.309 112.364 146.364 112.267 146.381H112.188Z" fill="#0F2064"/>
<path d="M127.778 149.164C127.688 149.164 127.602 149.132 127.535 149.074C127.467 149.015 127.423 148.934 127.411 148.846C127.398 148.758 127.418 148.668 127.466 148.593C127.514 148.518 127.588 148.463 127.674 148.438L127.975 148.349C131.778 147.221 143.348 143.8 153.405 143.226C153.504 143.22 153.6 143.254 153.674 143.319C153.748 143.384 153.792 143.476 153.798 143.575C153.804 143.673 153.771 143.77 153.705 143.843C153.64 143.917 153.548 143.962 153.45 143.968C143.477 144.536 131.971 147.923 128.188 149.061L127.886 149.15C127.851 149.16 127.814 149.165 127.778 149.164Z" fill="white"/>
<path d="M131.283 170.599C128.277 170.599 125.914 170.209 123.936 169.422C123.887 169.407 123.841 169.383 123.802 169.349C123.763 169.316 123.732 169.275 123.709 169.229C123.687 169.183 123.675 169.132 123.673 169.081C123.671 169.03 123.68 168.979 123.698 168.931C123.717 168.883 123.746 168.84 123.782 168.804C123.819 168.768 123.862 168.74 123.91 168.721C123.958 168.703 124.009 168.695 124.06 168.697C124.112 168.699 124.162 168.712 124.208 168.735C127.788 170.159 132.989 170.218 141.069 168.913C143.684 168.493 145.855 168.122 147.704 167.786C155.047 166.456 156.664 165.808 156.679 165.808C156.768 165.777 156.865 165.781 156.951 165.82C157.037 165.858 157.105 165.928 157.142 166.015C157.178 166.101 157.181 166.199 157.148 166.287C157.115 166.376 157.05 166.448 156.965 166.49C156.901 166.515 155.329 167.158 147.838 168.513C145.983 168.849 143.808 169.22 141.187 169.645C137.916 170.22 134.604 170.539 131.283 170.599Z" fill="white"/>
<path d="M175.364 60.9836C175.268 60.9837 175.176 60.9467 175.107 60.8803C175.038 60.8139 174.997 60.7234 174.993 60.6276L174.538 49.542L168.471 47.3565L160.926 56.1182C160.894 56.1552 160.854 56.1855 160.81 56.2072C160.766 56.229 160.718 56.2419 160.669 56.2451C160.619 56.2483 160.57 56.2418 160.524 56.226C160.477 56.2101 160.434 56.1853 160.397 56.1528C160.36 56.1204 160.33 56.0809 160.308 56.0368C160.286 55.9926 160.273 55.9446 160.27 55.8955C160.267 55.8463 160.273 55.797 160.289 55.7504C160.305 55.7038 160.33 55.6608 160.362 55.6238L168.071 46.6692C168.119 46.6122 168.184 46.5713 168.257 46.5519C168.329 46.5325 168.406 46.5355 168.476 46.5604L175.018 48.919C175.087 48.9434 175.148 48.988 175.192 49.047C175.236 49.106 175.261 49.1767 175.265 49.2502L175.73 60.5831C175.732 60.6318 175.724 60.6805 175.707 60.7262C175.691 60.772 175.665 60.814 175.632 60.8498C175.599 60.8856 175.559 60.9145 175.515 60.935C175.47 60.9554 175.423 60.9669 175.374 60.9688L175.364 60.9836Z" fill="#0F2064"/>
<path d="M153.603 107.418C153.544 107.418 153.485 107.404 153.432 107.377C153.379 107.35 153.334 107.31 153.299 107.262C153.265 107.213 153.243 107.157 153.234 107.098C153.226 107.039 153.232 106.979 153.252 106.923L168.006 66.4524C168.042 66.3625 168.111 66.2901 168.199 66.2503C168.287 66.2106 168.387 66.2067 168.478 66.2396C168.568 66.2724 168.643 66.3394 168.685 66.4262C168.727 66.513 168.734 66.6129 168.704 66.7045L153.949 107.176C153.923 107.246 153.876 107.308 153.814 107.351C153.752 107.394 153.679 107.418 153.603 107.418Z" fill="white"/>
<path d="M145.464 112.59C145.422 112.597 145.378 112.597 145.336 112.59C145.288 112.573 145.244 112.546 145.207 112.512C145.17 112.477 145.14 112.436 145.12 112.389C145.1 112.343 145.089 112.293 145.089 112.243C145.088 112.192 145.098 112.142 145.118 112.095L162.701 64.8057C162.735 64.7132 162.804 64.6381 162.894 64.5968C162.983 64.5556 163.086 64.5515 163.178 64.5856C163.271 64.6197 163.346 64.6892 163.387 64.7786C163.428 64.8681 163.432 64.9703 163.398 65.0628L145.815 112.352C145.788 112.423 145.74 112.484 145.677 112.526C145.614 112.569 145.54 112.591 145.464 112.59Z" fill="white"/>
</svg>
