<svg width="20" height="20" viewBox="0 0 20 20" fill="none" xmlns="http://www.w3.org/2000/svg">
<g clip-path="url(#clip0_83_2288)">
<path d="M13.9792 3.99998L17.1111 7.13192C17.2431 7.26387 17.2431 7.47915 17.1111 7.61109L9.52778 15.1944L6.30556 15.5521C5.875 15.6007 5.51042 15.2361 5.55903 14.8055L5.91667 11.5833L13.5 3.99998C13.6319 3.86804 13.8472 3.86804 13.9792 3.99998ZM19.6042 3.20484L17.9097 1.5104C17.3819 0.982619 16.5243 0.982619 15.9931 1.5104L14.7639 2.73956C14.6319 2.87151 14.6319 3.08679 14.7639 3.21873L17.8958 6.35067C18.0278 6.48262 18.2431 6.48262 18.375 6.35067L19.6042 5.12151C20.1319 4.59026 20.1319 3.73262 19.6042 3.20484ZM13.3333 13.1319V16.6666H2.22222V5.55553H10.2014C10.3125 5.55553 10.4167 5.5104 10.4965 5.43401L11.8854 4.04512C12.1493 3.78123 11.9618 3.33331 11.5903 3.33331H1.66667C0.746528 3.33331 0 4.07984 0 4.99998V17.2222C0 18.1423 0.746528 18.8889 1.66667 18.8889H13.8889C14.809 18.8889 15.5556 18.1423 15.5556 17.2222V11.743C15.5556 11.3715 15.1076 11.1875 14.8438 11.4479L13.4549 12.8368C13.3785 12.9166 13.3333 13.0208 13.3333 13.1319Z" fill="#A259FF"/>
</g>
<defs>
<clipPath id="clip0_83_2288">
<rect width="20" height="20" fill="white"/>
</clipPath>
</defs>
</svg>
